<svg fill="none" height="64" viewBox="0 0 43 64" width="43" xmlns="http://www.w3.org/2000/svg" xmlns:xlink="http://www.w3.org/1999/xlink"><clipPath id="a"><path d="m0 0h43v64h-43z"/></clipPath><g clip-path="url(#a)"><path clip-rule="evenodd" d="m21.3334 61.3331c6.1429 0 10.9026-3.9461 13.9801-9.9468 3.0595-5.9657 4.6865-14.3019 4.6865-24.2199 0-9.9039-1.9154-16.2501-5.6101-20.04891-3.7479-3.85359-8.7124-4.45111-13.0565-4.45111-4.3442 0-9.3087.59752-13.05661 4.45111-3.69468 3.79881-5.6101 10.14501-5.6101 20.04891 0 9.918 1.62703 18.2542 4.68656 24.2199 3.07745 6.0007 7.83715 9.9468 13.98015 9.9468zm15.9349-34.1667c0 19.3333-6.3741 31.4167-15.9349 31.4167-9.5609 0-15.93501-12.0834-15.93501-31.4167 0-19.33335 7.56911-21.75002 15.93501-21.75002 8.3658 0 15.9349 2.41667 15.9349 21.75002zm-15.5398 24.7806c-.1184-1.1417-1.0133-1.5015-2.4112-1.3155-1.3979.1859-2.5319.6943-2.4135 1.836.1183 1.1418 1.4399 1.4546 3.0649 1.6426 1.625.1881 1.8782-1.0214 1.7598-2.1631zm.3855-42.56556c1.3979-.18591 2.2929.1738 2.4112 1.31556.1184 1.1417-.1347 2.3512-1.7597 2.1631-1.6251-.188-2.9466-.5008-3.065-1.6426-.1184-1.1417 1.0156-1.65014 2.4135-1.83606zm-5.6803 15.91246c-.1623-.0443-.3497-.0954-.5641-.1605-1.3596-.4126-2.7318 0-3.1872.9166-.4555.9165-.4486 1.4207.9109 1.8333 1.3596.4125 3.3794-.2645 3.6421-1.3749.2213-.9352.0654-.9778-.8017-1.2145zm11.2735 11.7562c1.3979-.1859 2.2929.1738 2.4112 1.3155.1184 1.1417-.1347 2.3512-1.7597 2.1632-1.6251-.1881-2.9466-.5009-3.065-1.6426-.1184-1.1418 1.0156-1.6502 2.4135-1.8361zm-3.8125-8.8127c-1.316.6039-2.6934 1.2359-3.9698 1.7319-.4451.1729-.8604.3325-1.251.4825-1.9251.7396-3.2469 1.2473-4.5514 1.9814-3.18 1.7897-4.26823 2.4088-3.935 4.0552.3333 1.6464 1.237 1.9292 2.6246 1.9563 1.4442.0282 3.44-.7913 6.2736-1.9548v-.0001c.9933-.4078 2.0895-.8579 3.3009-1.3286 2.2664-.8806 3.7458-2.0654 4.9891-3.061.5543-.444 1.0617-.8503 1.5709-1.1753.5572-.3556 1.0714-.6577 1.5274-.9256 1.4869-.8736 2.3552-1.3837 2.0801-2.201-.3627-1.0777-.848-2.0349-3.6244-1.5474-1.1432.2007-3.0168 1.0604-5.0349 1.9865zm-4.6878-6.0453c1.1435.1718 2.2653.4241 3.3637.6711 1.8631.419 3.6588.8228 5.3782.7928 2.7332-.0477 5.2036-1.0227 5.332-2.2316.1078-1.0158-1.7487-1.5946-4.1892-2.3553h-.0002c-.4539-.1415-.9281-.2893-1.4136-.4474-.6654-.2167-1.3112-.603-2.0196-1.0267-1.1957-.7153-2.5697-1.5371-4.5175-1.8297-4.9481-.7433-7.0349-.5278-8.93-.0618-1.3482.3316-2.41049 1.1397-2.33673 2.5125.06264 1.1659.38213 1.2844 1.92743 1.8573.2744.1017.5873.2177.9443.3565.2287.0888.4426.1741.6488.2563l.0003.0001c1.4682.585 2.5492 1.0158 5.8121 1.5059zm6.3487 26.3793c-.9072-.2734-2.1283-.6415-4.0399-1.0361-3.5032-.7232-6.5351-1.691-8.2992-2.4813-2.3528-1.0541-3.0956-1.6512-3.26496-2.9628-.16941-1.3115 1.29206-1.4848 4.19866-1.4423 1.3838.0203 2.1771.1946 3.8245.5567.5509.121 1.1972.2631 1.993.4273 2.8185.5819 4.6984 1.205 6.3739 1.8332.9453.3544 1.7707.5792 2.4641.768 1.6424.4473 2.544.6929 2.544 1.982 0 1.8333-1.2918 2.4998-2.7317 2.75-1.1118.1932-1.7672-.0043-3.0624-.3947z" fill="#faf6f0" fill-rule="evenodd"/></g></svg>