<svg height="16" viewBox="0 0 16 16" width="16" xmlns="http://www.w3.org/2000/svg"><g fill="none" fill-rule="evenodd"><path d="m0 0h16v16h-16z"/><path d="m12.6666667 2.66666667h-2.7866667c-.28-.77333334-1.01333333-1.33333334-1.88-1.33333334s-1.6.56-1.88 1.33333334h-2.78666667c-.73333333 0-1.33333333.6-1.33333333 1.33333333v9.3333333c0 .7333334.6 1.3333334 1.33333333 1.3333334h9.33333337c.7333333 0 1.3333333-.6 1.3333333-1.3333334v-9.3333333c0-.73333333-.6-1.33333333-1.3333333-1.33333333zm-4.6666667 0c.36666667 0 .66666667.3.66666667.66666666 0 .36666667-.3.66666667-.66666667.66666667s-.66666667-.3-.66666667-.66666667c0-.36666666.3-.66666666.66666667-.66666666zm1.33333333 9.33333333h-4.66666666v-1.3333333h4.66666666zm1.99999997-2.66666667h-6.66666663v-1.33333333h6.66666663zm0-2.66666666h-6.66666663v-1.33333334h6.66666663z" fill="#0e0b2a" fill-rule="nonzero"/></g></svg>