<svg height="16" viewBox="0 0 16 16" width="16" xmlns="http://www.w3.org/2000/svg"><g fill="none" fill-rule="evenodd"><path d="m0 0h16v16h-16z"/><path d="m4.41333333 7.19333333c.96 1.88666667 2.50666667 3.42666667 4.39333334 4.39333337l1.46666663-1.4666667c.18-.18.4466667-.24.68-.16.7466667.2466667 1.5533334.38 2.38.38.3666667 0 .6666667.3.6666667.6666667v2.3266666c0 .3666667-.3.6666667-.6666667.6666667-6.25999997 0-11.3333333-5.07333333-11.3333333-11.33333333 0-.36666667.3-.66666667.66666667-.66666667h2.33333333c.36666667 0 .66666667.3.66666667.66666667 0 .83333333.13333333 1.63333333.38 2.38.07333333.23333333.02.49333333-.16666667.68z" fill="#0e0b2a" fill-rule="nonzero"/></g></svg>