<svg height="16" viewBox="0 0 16 16" width="16" xmlns="http://www.w3.org/2000/svg"><g fill="none" fill-rule="evenodd"><path d="m0 0h16v16h-16z"/><path d="m0 0h16v16h-16z"/><path d="m12.3166667 2.9h-2.5776667c-.259-.71533333-.93733333-1.23333333-1.739-1.23333333s-1.48.518-1.739 1.23333333h-2.57766667c-.67833333 0-1.23333333.555-1.23333333 1.23333333v8.63333337c0 .6783333.555 1.2333333 1.23333333 1.2333333h8.63333337c.6783333 0 1.2333333-.555 1.2333333-1.2333333v-8.63333337c0-.67833333-.555-1.23333333-1.2333333-1.23333333zm-4.3166667 0c.33916667 0 .61666667.2775.61666667.61666667 0 .33916666-.2775.61666666-.61666667.61666666s-.61666667-.2775-.61666667-.61666666c0-.33916667.2775-.61666667.61666667-.61666667zm1.23333333 8.6333333h-4.31666666v-1.2333333h4.31666666zm1.84999997-2.46666663h-6.16666663v-1.23333334h6.16666663zm0-2.46666667h-6.16666663v-1.23333333h6.16666663z" fill="#0e0b2a" fill-rule="nonzero"/></g></svg>