<svg height="16" viewBox="0 0 16 16" width="16" xmlns="http://www.w3.org/2000/svg"><g fill="none" fill-rule="evenodd"><path d="m0 0h16v16h-16z"/><g fill="#0e0b2a" fill-rule="nonzero"><circle cx="6" cy="6" r="2.666667"/><path d="m6 10c-1.78 0-5.33333333.8933333-5.33333333 2.6666667v1.3333333h10.66666663v-1.3333333c0-1.7733334-3.5533333-2.6666667-5.3333333-2.6666667zm5.1733333-6.42666667-1.12 1.12666667c.56.78666667.56 1.80666667 0 2.59333333l1.12 1.12666667c1.3466667-1.34666667 1.3466667-3.38 0-4.84666667zm2.2066667-2.24-1.0866667 1.08666667c1.8466667 2.01333333 1.8466667 5.04 0 7.16l1.0866667 1.0866667c2.6-2.59333337 2.6066667-6.63333337 0-9.33333337z"/></g></g></svg>