<svg height="16" viewBox="0 0 16 16" width="16" xmlns="http://www.w3.org/2000/svg"><g fill="none" fill-rule="evenodd"><path d="m0 0h16v16h-16z"/><path d="m8 1.33333333c-3.68 0-6.66666667 2.98666667-6.66666667 6.66666667s2.98666667 6.6666667 6.66666667 6.6666667h3.3333333v-1.3333334h-3.3333333c-2.89333333 0-5.33333333-2.44-5.33333333-5.3333333 0-2.89333333 2.44-5.33333333 5.33333333-5.33333333 2.8933333 0 5.3333333 2.44 5.3333333 5.33333333v.95333333c0 .52666667-.4733333 1.04666667-1 1.04666667-.5266666 0-1-.52-1-1.04666667v-.95333333c0-1.84-1.4933333-3.33333333-3.3333333-3.33333333s-3.33333333 1.49333333-3.33333333 3.33333333 1.49333333 3.3333333 3.33333333 3.3333333c.92 0 1.76-.3733333 2.36-.98.4333333.5933334 1.18.98 1.9733333.98 1.3133334 0 2.3333334-1.0666666 2.3333334-2.37999997v-.95333333c0-3.68-2.9866667-6.66666667-6.6666667-6.66666667zm0 8.66666667c-1.10666667 0-2-.89333333-2-2s.89333333-2 2-2 2 .89333333 2 2-.89333333 2-2 2z" fill="#0e0b2a" fill-rule="nonzero"/></g></svg>