<svg height="16" viewBox="0 0 16 16" width="16" xmlns="http://www.w3.org/2000/svg"><g fill="none" fill-rule="evenodd"><path d="m0 0h16v16h-16z"/><path d="m2 3.33333333v9.33333337c0 .7333333.59333333 1.3333333 1.33333333 1.3333333h9.33333337c.7333333 0 1.3333333-.6 1.3333333-1.3333333v-9.33333337c0-.73333333-.6-1.33333333-1.3333333-1.33333333h-9.33333337c-.74 0-1.33333333.6-1.33333333 1.33333333zm8 2.66666667c0 1.10666667-.89333333 2-2 2s-2-.89333333-2-2 .89333333-2 2-2 2 .89333333 2 2zm-6 5.3333333c0-1.3333333 2.66666667-2.06666663 4-2.06666663s4 .73333333 4 2.06666663v.6666667h-8z" fill="#0e0b2a" fill-rule="nonzero"/></g></svg>