<svg height="16" viewBox="0 0 16 16" width="16" xmlns="http://www.w3.org/2000/svg"><g fill="none" fill-rule="evenodd"><path d="m0 0h16v16h-16z"/><path d="m7.99090909 4.18181818v1.90909091l-2.54545454-2.54545454 2.54545454-2.54545455v1.90909091c2.81272731 0 5.09090911 2.27818182 5.09090911 5.09090909 0 .99909091-.2927273 1.92818182-.7890909 2.7109091l-.9290909-.92909092c.2863636-.52818182.4454545-1.13909091.4454545-1.78181818 0-2.10636364-1.7118182-3.81818182-3.81818181-3.81818182zm-4.30181818 1.10727273.92909091.92909091c-.28.53454545-.44545455 1.13909091-.44545455 1.78181818 0 2.1063636 1.71181818 3.8181818 3.81818182 3.8181818v-1.90909089l2.54545451 2.54545459-2.54545451 2.5454545v-1.9090909c-2.81272727 0-5.09090909-2.2781818-5.09090909-5.0909091 0-.99909091.29272727-1.92818182.78909091-2.71090909z" fill="#0e0b2a" fill-rule="nonzero"/></g></svg>