<svg height="16" viewBox="0 0 16 16" width="16" xmlns="http://www.w3.org/2000/svg"><g fill="none" fill-rule="evenodd"><path d="m0 0h16v16h-16z"/><path d="m14 12v.6666667c0 .7333333-.6 1.3333333-1.3333333 1.3333333h-9.33333337c-.74 0-1.33333333-.6-1.33333333-1.3333333v-9.33333337c0-.73333333.59333333-1.33333333 1.33333333-1.33333333h9.33333337c.7333333 0 1.3333333.6 1.3333333 1.33333333v.66666667h-6c-.74 0-1.33333333.6-1.33333333 1.33333333v5.33333337c0 .7333333.59333333 1.3333333 1.33333333 1.3333333zm-6-1.3333333h6.6666667v-5.33333337h-6.6666667zm2.6666667-1.6666667c-.5533334 0-1.00000003-.44666667-1.00000003-1s.44666663-1 1.00000003-1c.5533333 0 1 .44666667 1 1s-.4466667 1-1 1z" fill="#0e0b2a" fill-rule="nonzero"/></g></svg>