<svg height="24" viewBox="0 0 24 24" width="24" xmlns="http://www.w3.org/2000/svg"><g fill="none" fill-rule="evenodd"><path d="m0 0h24v24h-24z"/><path d="m12 10.2222222c-.9777778 0-1.7777778.8-1.7777778 1.7777778s.8 1.7777778 1.7777778 1.7777778 1.7777778-.8 1.7777778-1.7777778-.8-1.7777778-1.7777778-1.7777778zm6.2222222-6.2222222h-12.44444442c-.98666667 0-1.77777778.8-1.77777778 1.77777778v12.44444442c0 .9777778.79111111 1.7777778 1.77777778 1.7777778h12.44444442c.9866667 0 1.7777778-.8 1.7777778-1.7777778v-12.44444442c0-.97777778-.7911111-1.77777778-1.7777778-1.77777778zm-.8086861 8.0140604c0 .2377636-.0206751.4755271-.0516877.7029532l1.5299569 1.1991554c.1343881.113713.1757383.3101264.0827004.4651896l-1.4472565 2.5016862c-.093038.1550632-.2791138.2170885-.4445145.1550632l-1.7987332-.7236282c-.3721516.2894513-.7856535.5272149-1.2198305.7132907l-.2687762 1.9124461c-.0310126.1757383-.1860758.3101264-.3618141.3101264h-2.894513c-.1757383 0-.3308015-.1343881-.3618142-.2997888l-.26877618-1.9124462c-.44451451-.1860758-.84767883-.4238394-1.2198305-.7132907l-1.79873311.7236283c-.16540075.0620253-.35147658 0-.4445145-.1550632l-1.44725653-2.5016863c-.09303792-.1550632-.05168773-.3514766.08270038-.4651896l1.52995689-1.1991554c-.03101264-.2377636-.05168773-.4755271-.05168773-.7132907s.02067509-.4755271.05168773-.7029532l-1.52995689-1.1991554c-.13438811-.11371299-.1757383-.31012638-.08270038-.46518958l1.44725653-2.50168627c.09303792-.1550632.27911375-.21708848.4445145-.1550632l1.79873311.72362826c.37215167-.2894513.78565354-.52721488 1.2198305-.71329071l.26877618-1.91244612c.0310127-.1757383.1860759-.3101264.3618142-.3101264h2.894513c.1757383 0 .3308015.1343881.3618141.29978885l.2687762 1.91244612c.4445145.18607584.8476789.42383941 1.2198305.71329071l1.7987332-.72362826c.1654007-.06202528.3514765 0 .4445145.1550632l1.4472565 2.50168628c.0930379.1550632.0516877.35147658-.0827004.46518962l-1.5299569 1.1991554c.0310126.2377636.0516877.4755271.0516877.7132907z" fill="#fff" fill-rule="nonzero"/></g></svg>