<svg height="64" viewBox="0 0 64 64" width="64" xmlns="http://www.w3.org/2000/svg" xmlns:xlink="http://www.w3.org/1999/xlink"><mask id="a" fill="#fff"><path d="m0 0h64v64h-64z" fill="#fff" fill-rule="evenodd"/></mask><g fill="#483bd4" fill-rule="nonzero"><path d="m49.7381539 33.8623992h-4.0851064c0-10.9046861-8.8399947-19.7446808-19.7446808-19.7446808-10.9046862 0-19.74468088 8.8399947-19.74468088 19.7446808h-4.08510639c0-13.1608281 10.66895917-23.8297872 23.82978727-23.8297872 13.160828 0 23.8297872 10.6689591 23.8297872 23.8297872z" mask="url(#a)" transform="matrix(.82903757 -.5591929 .5591929 .82903757 -7.843532 18.239974)"/><path d="m57.2295931 53.4808933h-4.0851064c0-10.9046861-8.8399947-19.7446809-19.7446808-19.7446809v-4.0851064c13.1608281 0 23.8297872 10.6689592 23.8297872 23.8297873z" mask="url(#a)" transform="matrix(.15643447 .98768834 -.98768834 .15643447 79.280172 -9.693155)"/><path d="m32 64v-4.0851064c15.41697 0 27.9148936-12.4979236 27.9148936-27.9148936s-12.4979236-27.91489362-27.9148936-27.91489362-27.91489362 12.49792362-27.91489362 27.91489362h-4.08510638c0-17.673112 14.326888-32 32-32s32 14.326888 32 32-14.326888 32-32 32z" mask="url(#a)" transform="matrix(-.08715574 .9961947 -.9961947 -.08715574 66.667214 2.910753)"/><path d="m32 47.6595745v-4.0851064c6.3924022 0 11.5744681-5.1820659 11.5744681-11.5744681 0-4.0601107-2.105397-7.7552391-5.4965406-9.8524561-1.8115145-1.120312-3.897898-1.722012-6.0779275-1.722012-6.3924022 0-11.5744681 5.1820659-11.5744681 11.5744681h-4.0851064c0-8.6485442 7.0110303-15.6595745 15.6595745-15.6595745 2.9445962 0 5.7740798.8160054 8.2266143 2.3327495 4.5827331 2.834143 7.4329602 7.8365035 7.4329602 13.326825 0 8.6485442-7.0110303 15.6595745-15.6595745 15.6595745z" mask="url(#a)" transform="matrix(-.68199836 .7313537 -.7313537 -.68199836 77.227266 30.420629)"/></g></svg>