<svg width="107" height="24" xmlns="http://www.w3.org/2000/svg"><path d="M4.351 9.808h15.28V0h4.352v24h-4.351v-9.808H4.352V24H0V0h4.351v9.808zM52.62 24h-4.351v-5.891H32.97V24h-4.352V12c0-1.752.301-3.364.904-4.837.603-1.473 1.44-2.739 2.51-3.799a11.43 11.43 0 0 1 3.8-2.477C37.294.296 38.89 0 40.619 0h9.808a2.197 2.197 0 0 1 1.556.636 2.197 2.197 0 0 1 .636 1.556V24zM32.971 13.757h15.297V4.351h-7.649c-.134 0-.415.02-.845.059-.43.04-.926.137-1.49.293a9.32 9.32 0 0 0-1.782.72 6.26 6.26 0 0 0-1.724 1.339c-.524.569-.957 1.28-1.297 2.133-.34.854-.51 1.889-.51 3.105v1.757zM79.715 24H59.866a2.24 2.24 0 0 1-.87-.167 2.128 2.128 0 0 1-.695-.46 2.128 2.128 0 0 1-.46-.695 2.24 2.24 0 0 1-.167-.87V0h4.351v19.649h17.69V24zm26.745 0h-4.351v-5.891H86.812V24H82.46V12c0-1.752.302-3.364.904-4.837.603-1.473 1.44-2.739 2.51-3.799a11.43 11.43 0 0 1 3.8-2.477C91.135.296 92.73 0 94.46 0h9.808a2.197 2.197 0 0 1 1.556.636 2.197 2.197 0 0 1 .636 1.556V24zM86.812 13.757h15.297V4.351H94.46c-.134 0-.415.02-.845.059-.43.04-.926.137-1.49.293a9.32 9.32 0 0 0-1.782.72 6.26 6.26 0 0 0-1.724 1.339c-.524.569-.957 1.28-1.297 2.133-.34.854-.51 1.889-.51 3.105v1.757z" fill="#FFF" fill-rule="evenodd"/></svg>
