<svg height="64" viewBox="0 0 182 64" width="182" xmlns="http://www.w3.org/2000/svg" xmlns:xlink="http://www.w3.org/1999/xlink"><mask id="a" fill="#fff"><path d="m0 0h64v64h-64z" fill="#fff" fill-rule="evenodd"/></mask><g fill="none" fill-rule="evenodd"><g fill-rule="nonzero"><path d="m49.7381539 33.8623992h-4.0851064c0-10.9046861-8.8399947-19.7446808-19.7446808-19.7446808-10.9046862 0-19.74468088 8.8399947-19.74468088 19.7446808h-4.08510639c0-13.1608281 10.66895917-23.8297872 23.82978727-23.8297872 13.160828 0 23.8297872 10.6689591 23.8297872 23.8297872z" fill="#483bd4" mask="url(#a)" transform="matrix(.82903757 -.5591929 .5591929 .82903757 -7.843532 18.239974)"/><path d="m57.2295931 53.4808933h-4.0851064c0-10.9046861-8.8399947-19.7446809-19.7446808-19.7446809v-4.0851064c13.1608281 0 23.8297872 10.6689592 23.8297872 23.8297873z" fill="#483bd4" mask="url(#a)" transform="matrix(.15643447 .98768834 -.98768834 .15643447 79.280172 -9.693155)"/><path d="m32 64v-4.0851064c15.41697 0 27.9148936-12.4979236 27.9148936-27.9148936s-12.4979236-27.91489362-27.9148936-27.91489362-27.91489362 12.49792362-27.91489362 27.91489362h-4.08510638c0-17.673112 14.326888-32 32-32s32 14.326888 32 32-14.326888 32-32 32z" fill="#483bd4" mask="url(#a)" transform="matrix(-.08715574 .9961947 -.9961947 -.08715574 66.667214 2.910753)"/><path d="m32 47.6595745v-4.0851064c6.3924022 0 11.5744681-5.1820659 11.5744681-11.5744681 0-4.0601107-2.105397-7.7552391-5.4965406-9.8524561-1.8115145-1.120312-3.897898-1.722012-6.0779275-1.722012-6.3924022 0-11.5744681 5.1820659-11.5744681 11.5744681h-4.0851064c0-8.6485442 7.0110303-15.6595745 15.6595745-15.6595745 2.9445962 0 5.7740798.8160054 8.2266143 2.3327495 4.5827331 2.834143 7.4329602 7.8365035 7.4329602 13.326825 0 8.6485442-7.0110303 15.6595745-15.6595745 15.6595745z" fill="#483bd4" mask="url(#a)" transform="matrix(-.68199836 .7313537 -.7313537 -.68199836 77.227266 30.420629)"/><path d="m32 39.4893617c-4.1362603 0-7.4893617-3.3531014-7.4893617-7.4893617s3.3531014-7.4893617 7.4893617-7.4893617 7.4893617 3.3531014 7.4893617 7.4893617-3.3531014 7.4893617-7.4893617 7.4893617z" fill="#c7425d" mask="url(#a)"/></g><path d="m86.453125 29.75h14.265625v-9.15625h4.0625v22.40625h-4.0625v-9.15625h-14.265625v9.15625h-4.0625v-22.40625h4.0625zm45.0625 13.25h-4.0625v-5.5h-14.28125v5.5h-4.0625v-11.203125c0-1.6354248.281247-3.1406181.84375-4.515625s1.343745-2.5572867 2.34375-3.546875 2.182285-1.7604139 3.546875-2.3125 2.854159-.828125 4.46875-.828125h9.15625c.281251 0 .546874.0520828.796875.15625s.468749.2499991.65625.4375.333333.4062488.4375.65625c.104167.2500013.15625.5156236.15625.796875zm-18.34375-9.5625h14.28125v-8.78125h-7.140625c-.125001 0-.388019.018229-.789062.0546875-.401044.0364585-.864581.1276034-1.390626.2734375-.526044.1458341-1.080726.3697902-1.664062.671875s-1.119789.7187473-1.609375 1.25-.893228 1.1953085-1.210937 1.9921875c-.31771.796879-.476563 1.7630152-.476563 2.8984375zm43.640625 9.5625h-18.53125c-.291668 0-.562499-.0520828-.8125-.15625s-.466145-.2473949-.648438-.4296875c-.182292-.1822926-.32552-.3984363-.429687-.6484375s-.15625-.5208319-.15625-.8125v-20.359375h4.0625v18.34375h16.515625zm24.96875 0h-4.0625v-5.5h-14.28125v5.5h-4.0625v-11.203125c0-1.6354248.281247-3.1406181.84375-4.515625s1.343745-2.5572867 2.34375-3.546875 2.182285-1.7604139 3.546875-2.3125 2.854159-.828125 4.46875-.828125h9.15625c.281251 0 .546874.0520828.796875.15625s.468749.2499991.65625.4375.333333.4062488.4375.65625c.104167.2500013.15625.5156236.15625.796875zm-18.34375-9.5625h14.28125v-8.78125h-7.140625c-.125001 0-.388019.018229-.789063.0546875-.401043.0364585-.86458.1276034-1.390624.2734375-.526045.1458341-1.080727.3697902-1.664063.671875s-1.119789.7187473-1.609375 1.25-.893228 1.1953085-1.210938 1.9921875c-.317709.796879-.476562 1.7630152-.476562 2.8984375z" fill="#483bd4"/></g></svg>