<svg fill="none" height="64" viewBox="0 0 253 64" width="253" xmlns="http://www.w3.org/2000/svg" xmlns:xlink="http://www.w3.org/1999/xlink"><clipPath id="a"><path d="m0 0h253v64h-253z"/></clipPath><g clip-path="url(#a)" fill="#191919"><path clip-rule="evenodd" d="m32 64c-17.6731 0-32-14.3269-32-32s14.3269-32 32-32 32 14.3269 32 32-14.3269 32-32 32zm0-54c3.3137 0 6 2.6863 6 6s-2.6863 6-6 6v4c5.5228 0 10-4.4772 10-10 0-.6841-.0687-1.3521-.1995-1.9976 2.5916 2.5409 4.1995 6.0815 4.1995 9.9976 0 7.732-6.268 14-14 14v4c9.9411 0 18-8.0589 18-18 0-2.1003-.3597-4.1166-1.0209-5.9907 3.1367 3.8025 5.0209 8.6765 5.0209 13.9907 0 12.1503-9.8497 22-22 22v4c14.3594 0 26-11.6406 26-26s-11.6406-26-26-26v2z" fill-rule="evenodd"/><path d="m92 54h-9.0625v-33.8125h9.0625zm-9.5938-42.5625c0-1.3542.4532-2.46875 1.3594-3.34375.9063-.875 2.1406-1.3125 3.7032-1.3125 1.5416 0 2.7708.4375 3.6874 1.3125.9167.875 1.375 1.98955 1.375 3.34375 0 1.375-.4635 2.5-1.3906 3.375s-2.151 1.3125-3.6718 1.3125c-1.5209 0-2.7448-.4375-3.6719-1.3125s-1.3907-2-1.3907-3.375zm25.3438 8.75.281 3.9063c2.417-3.0209 5.656-4.5313 9.719-4.5313 3.583 0 6.25 1.0521 8 3.1563 1.75 2.1041 2.646 5.2499 2.688 9.4374v21.8438h-9.032v-21.625c0-1.9167-.416-3.3073-1.25-4.1719-.833-.8646-2.218-1.2969-4.156-1.2969-2.542 0-4.448 1.0834-5.719 3.25v23.8438h-9.031v-33.8125zm45.844 24.4687c0-1.1041-.547-1.9739-1.641-2.6093s-2.849-1.2031-5.265-1.7031c-8.042-1.6876-12.063-5.1042-12.063-10.25 0-3.0001 1.245-5.5052 3.734-7.5157 2.49-2.0104 5.745-3.0156 9.766-3.0156 4.292 0 7.724 1.0104 10.297 3.0313 2.573 2.0208 3.859 4.6458 3.859 7.875h-9.031c0-1.2917-.417-2.3594-1.25-3.2032-.833-.8437-2.135-1.2656-3.906-1.2656-1.521 0-2.698.3437-3.532 1.0312-.833.6876-1.25 1.5625-1.25 2.625 0 1.0001.474 1.8073 1.422 2.4219s2.547 1.1459 4.797 1.5938 4.146.9531 5.688 1.5156c4.771 1.75 7.156 4.7812 7.156 9.0937 0 3.0834-1.323 5.5782-3.969 7.4844-2.646 1.9063-6.062 2.8594-10.25 2.8594-2.833 0-5.349-.5052-7.547-1.5156s-3.921-2.3958-5.171-4.1563c-1.251-1.7604-1.876-3.6614-1.876-5.7031h8.563c.083 1.6042.677 2.8333 1.781 3.6875s2.584 1.2813 4.438 1.2813c1.729 0 3.036-.3282 3.922-.9844.885-.6563 1.328-1.5156 1.328-2.5782zm23.062-24.4687.282 3.7813c2.395-2.9376 5.635-4.4063 9.718-4.4063 4.354 0 7.344 1.7187 8.969 5.1563 2.375-3.4376 5.76-5.1563 10.156-5.1563 3.667 0 6.396 1.0677 8.188 3.2031 1.791 2.1355 2.687 5.349 2.687 9.6406v21.5938h-9.062v-21.5625c0-1.9167-.375-3.3177-1.125-4.2031s-2.073-1.3282-3.969-1.3282c-2.708 0-4.583 1.2917-5.625 3.875l.031 23.2188h-9.031v-21.5312c0-1.9584-.385-3.375-1.156-4.25-.771-.8751-2.084-1.3126-3.938-1.3126-2.562 0-4.416 1.0625-5.562 3.1876v23.9062h-9.031v-33.8125zm62.5 34.4375c-4.958 0-8.995-1.5208-12.109-4.5625-3.115-3.0417-4.672-7.0937-4.672-12.1563v-.875c0-3.3958.656-6.4322 1.969-9.1093 1.312-2.6771 3.172-4.7396 5.578-6.1875s5.151-2.1719 8.234-2.1719c4.625 0 8.266 1.4583 10.922 4.375s3.984 7.0521 3.984 12.4063v3.6874h-21.531c.292 2.2084 1.172 3.9792 2.641 5.3126 1.469 1.3333 3.328 2 5.578 2 3.479 0 6.198-1.2605 8.156-3.7813l4.438 4.9687c-1.354 1.9167-3.188 3.4115-5.5 4.4844-2.313 1.0729-4.875 1.6094-7.688 1.6094zm-1.031-27.75c-1.792 0-3.245.6042-4.359 1.8125-1.115 1.2083-1.828 2.9375-2.141 5.1875h12.563v-.7188c-.042-2-.584-3.5468-1.626-4.6406-1.041-1.0937-2.52-1.6406-4.437-1.6406z"/></g></svg>