<svg fill="none" height="64" viewBox="0 0 269 64" width="269" xmlns="http://www.w3.org/2000/svg"><g fill="#1e3d44"><path d="m63.992 22.7521-3.392-.448v-2.24h10.88l3.392 13.376.768 3.552.64-3.552 3.36-13.376h10.816v2.24l-3.488.448 2.56 18.624 2.464.352v2.112h-10.784v-2.112l2.72-.352-1.344-13.792-.576-5.632-1.12 5.12-4.192 15.84h-4.192l-4.48-15.392-1.472-5.6-.384 5.664-1.184 13.792 3.264.352v2.112h-9.248v-2.112l2.656-.32z"/><path d="m96.5417 51.8081c-.448 0-.9173-.032-1.408-.096-.4693-.064-.8106-.1494-1.024-.256v-3.84c.1494.1066.4694.2026.96.288.4907.1066.9387.16 1.344.16 1.088 0 1.952-.3414 2.592-1.024.64-.6827 1.2263-1.7494 1.7603-3.2h-1.8563l-5.984-15.36-1.408-.384v-2.048h9.4403v2.048l-2.2403.384 2.6563 8.512.96 3.232.768-3.232 2.464-8.544-1.92-.352v-2.048h7.232v2.048l-1.536.352c-.896 2.752-1.995 5.984-3.296 9.696-1.28 3.712-1.995 5.7386-2.144 6.08-.64 1.7706-1.291 3.1893-1.952 4.256-.64 1.088-1.398 1.9093-2.2723 2.464-.8746.576-1.92.864-3.136.864z"/><path d="m126.825 22.0161-7.616.48-1.792 4.384-2.752-.384.8-6.496h16.64l.8 1.888-11.232 17.728-2.24 2.08 9.12-.672 1.856-4.928 2.752.576-.704 7.168h-17.984l-1.056-1.856 11.488-17.792z"/><path d="m143.505 44.1921c-2.922 0-5.088-.8214-6.496-2.464-1.408-1.664-2.112-3.9254-2.112-6.784 0-1.9414.363-3.616 1.088-5.024.726-1.408 1.739-2.4747 3.04-3.2 1.323-.7467 2.87-1.12 4.64-1.12 2.24 0 3.947.5653 5.12 1.696 1.195 1.1306 1.814 2.7306 1.856 4.8 0 1.3653-.096 2.464-.288 3.296h-10.016c.107 1.8133.544 3.2 1.312 4.16.79.9386 1.888 1.408 3.296 1.408.79 0 1.611-.128 2.464-.384.875-.2774 1.579-.5867 2.112-.928l.896 1.952c-.554.6186-1.504 1.2053-2.848 1.76-1.322.5546-2.677.832-4.064.832zm2.048-10.912.032-1.344c0-1.344-.181-2.368-.544-3.072-.362-.704-.981-1.056-1.856-1.056-.896 0-1.589.3946-2.08 1.184-.49.768-.757 2.1973-.8 4.288z"/><path d="m154.76 29.4081-1.888-.576v-2.496l5.824-.704h.096l.832.672v1.184l-.032.736c.747-.704 1.696-1.3014 2.848-1.792 1.152-.4907 2.358-.736 3.616-.736 1.28 0 2.283.2346 3.008.704.747.448 1.28 1.1733 1.6 2.176.342 1.0026.512 2.368.512 4.096v8.768l1.792.256v2.144h-8.704v-2.112l1.568-.288v-8.736c0-1.024-.074-1.8134-.224-2.368-.128-.576-.362-.992-.704-1.248-.341-.256-.832-.384-1.472-.384-.981 0-2.09.4586-3.328 1.376v11.36l1.76.288v2.112h-8.864v-2.112l1.76-.288z"/><path d="m185.144 22.4321-4 .16-1.344 7.136h-3.008l.512-9.664h21.088l.416 9.664h-2.848l-1.408-7.136-3.872-.16v18.944l4.448.352v2.112h-14.048v-2.112l4.064-.352z"/><path d="m209.068 44.1921c-2.923 0-5.088-.8214-6.496-2.464-1.408-1.664-2.112-3.9254-2.112-6.784 0-1.9414.363-3.616 1.088-5.024s1.739-2.4747 3.04-3.2c1.323-.7467 2.869-1.12 4.64-1.12 2.24 0 3.947.5653 5.12 1.696 1.195 1.1306 1.813 2.7306 1.856 4.8 0 1.3653-.096 2.464-.288 3.296h-10.016c.107 1.8133.544 3.2 1.312 4.16.789.9386 1.888 1.408 3.296 1.408.789 0 1.611-.128 2.464-.384.875-.2774 1.579-.5867 2.112-.928l.896 1.952c-.555.6186-1.504 1.2053-2.848 1.76-1.323.5546-2.677.832-4.064.832zm2.048-10.912.032-1.344c0-1.344-.181-2.368-.544-3.072s-.981-1.056-1.856-1.056c-.896 0-1.589.3946-2.08 1.184-.491.768-.757 2.1973-.8 4.288z"/><path d="m218.083 38.7201c0-1.8774.949-3.3174 2.848-4.32 1.92-1.0027 4.437-1.5147 7.552-1.536v-.64c0-.768-.086-1.376-.256-1.824-.171-.448-.48-.7787-.928-.992-.448-.2347-1.11-.352-1.984-.352-1.046 0-1.984.128-2.816.384-.811.2346-1.664.5546-2.56.96l-1.088-2.304c.341-.2774.896-.608 1.664-.992.768-.4054 1.685-.7467 2.752-1.024 1.088-.2987 2.218-.448 3.392-.448 1.706 0 3.04.224 4 .672.981.448 1.674 1.1413 2.08 2.08.426.9386.64 2.2186.64 3.84v9.504h1.664v2.016c-.491.1066-1.174.2133-2.048.32-.875.1066-1.622.16-2.24.16-.811 0-1.355-.1174-1.632-.352-.256-.2347-.384-.704-.384-1.408v-.736c-.534.64-1.248 1.216-2.144 1.728-.896.4906-1.931.736-3.104.736-1.003 0-1.92-.2134-2.752-.64-.811-.448-1.462-1.0774-1.952-1.888-.47-.832-.704-1.8134-.704-2.944zm7.904 2.528c.384 0 .81-.1067 1.28-.32.469-.2347.874-.512 1.216-.832v-5.088c-1.664 0-2.902.2986-3.712.896-.79.5973-1.184 1.3653-1.184 2.304 0 .96.213 1.7066.64 2.24.426.5333 1.013.8 1.76.8z"/><path d="m236.877 41.7281 1.696-.288v-12.032l-1.888-.576v-2.496l5.824-.704.256.128.64.896v1.6c.682-.704 1.685-1.3014 3.008-1.792 1.322-.512 2.453-.768 3.392-.768 1.152 0 2.08.192 2.784.576.725.384 1.269.9813 1.632 1.792.725-.6827 1.632-1.248 2.72-1.696 1.109-.448 2.229-.672 3.36-.672 1.877 0 3.221.544 4.032 1.632.832 1.088 1.248 2.8693 1.248 5.344v8.768l1.92.288v2.112h-8.672v-2.112l1.44-.288v-8.64c0-1.536-.182-2.6027-.544-3.2-.342-.5974-.982-.896-1.92-.896-.982 0-2.006.416-3.072 1.248.128.7893.192 1.696.192 2.72v8.768l1.792.288v2.112h-8.736v-2.112l1.6-.288v-8.736c0-1.5147-.171-2.56-.512-3.136-.32-.576-.939-.864-1.856-.864-.598 0-1.195.1386-1.792.416-.576.256-1.078.576-1.504.96v11.36l1.728.288v2.112h-8.768z"/></g><path d="m37.2684 27.1664c0 19.3334-6.3741 31.4167-15.935 31.4167s-15.93496-12.0833-15.93496-31.4167c0-19.33329 7.56916-21.74996 15.93496-21.74996s15.935 2.41667 15.935 21.74996z" fill="#e3df87"/><path clip-rule="evenodd" d="m35.3135 51.3863c-3.0775 6.0007-7.8372 9.9468-13.9801 9.9468-6.143 0-10.9027-3.9461-13.98015-9.9468-3.05953-5.9657-4.68656-14.3019-4.68656-24.2199 0-9.9039 1.91542-16.25 5.6101-20.04885 3.74791-3.85359 8.71241-4.45111 13.05661-4.45111 4.3441 0 9.3086.59752 13.0565 4.45111 3.6947 3.79885 5.6101 10.14495 5.6101 20.04885 0 9.918-1.627 18.2542-4.6865 24.2199zm-13.9801 7.1968c9.5608 0 15.9349-12.0833 15.9349-31.4167 0-19.33329-7.5691-21.74996-15.9349-21.74996-8.3659 0-15.93501 2.41667-15.93501 21.74996 0 19.3334 6.37411 31.4167 15.93501 31.4167z" fill="#1e3d44" fill-rule="evenodd"/><path d="m15.8696 25.5832c1.3595.4126 1.6285.2646 1.3658 1.375s-2.2825 1.7874-3.6421 1.3749c-1.3595-.4126-1.3664-.9168-.9109-1.8333.4554-.9166 1.8276-1.3292 3.1872-.9166z" fill="#1e3d44"/><path d="m27.7073 37.5c1.3979-.1859 2.2928.1738 2.4112 1.3155.1184 1.1418-.1347 2.3512-1.7598 2.1632-1.625-.188-2.9465-.5009-3.0649-1.6426s1.0156-1.6502 2.4135-1.8361z" fill="#1e3d44"/><path d="m17.984 50.6315c1.3979-.1859 2.2928.1738 2.4112 1.3155.1183 1.1417-.1348 2.3512-1.7598 2.1632s-2.9466-.5009-3.065-1.6426c-.1183-1.1417 1.0156-1.6502 2.4136-1.8361z" fill="#1e3d44"/><path d="m23.4474 9.38149c1.3979-.18592 2.2928.17379 2.4112 1.31551.1184 1.1417-.1347 2.3512-1.7598 2.1632-1.625-.188-2.9465-.5009-3.0649-1.6426s1.0156-1.65019 2.4135-1.83611z" fill="#1e3d44"/><path d="m19.925 30.4192c3.2339-1.2565 7.1162-3.3868 9.0048-3.7184 2.7763-.4875 3.2616.4698 3.6244 1.5474.3594 1.068-1.2333 1.6115-3.6075 3.1267-1.6514 1.0539-3.2832 2.9631-6.56 4.2362-4.6674 1.8135-7.6241 3.3216-9.5745 3.2835-1.3876-.0271-2.2913-.3099-2.6246-1.9563-.33325-1.6464.755-2.2655 3.935-4.0551 1.5691-.883 3.1632-1.4386 5.8024-2.464z" fill="#1e3d44"/><path d="m19.2069 22.6422c3.0829.4631 6.0087 1.5115 8.7419 1.4638 2.7331-.0476 5.2035-1.0227 5.3319-2.2316.1279-1.2048-2.5075-1.7947-5.6029-2.8027-1.7889-.5825-3.4355-2.3905-6.5371-2.8564-4.9482-.7433-7.035-.5278-8.93-.0617-1.3483.3316-2.41056 1.1396-2.3368 2.5124.07375 1.3729.5036 1.2934 2.8717 2.2138 1.8565.7215 2.7398 1.2034 6.4613 1.7624z" fill="#1e3d44"/><path d="m21.5157 47.9854c4.6409.958 5.2117 1.7593 7.1023 1.4308 1.4399-.2502 2.7317-.9167 2.7317-2.75s-1.8236-1.556-5.0081-2.75c-1.6755-.6282-3.5554-1.2513-6.3739-1.8332-3.176-.6556-3.9711-.957-5.8175-.984-2.9066-.0425-4.36808.1308-4.19867 1.4423.16937 1.3116.91217 1.9087 3.26497 2.9628 1.7641.7903 4.796 1.7581 8.2992 2.4813z" fill="#1e3d44"/></svg>