<svg fill="none" height="48" viewBox="0 0 269 48" width="269" xmlns="http://www.w3.org/2000/svg" xmlns:xlink="http://www.w3.org/1999/xlink"><clipPath id="a"><path d="m0 0h269v48h-269z"/></clipPath><g clip-path="url(#a)"><path d="m24 48c13.2548 0 24-10.7452 24-24s-10.7452-24-24-24-24 10.7452-24 24 10.7452 24 24 24z" fill="#8de0f1"/><path d="m23.9944 0c13.2518 0 23.9945 10.7452 23.9945 24s-10.7427 24-23.9945 24c-13.2517 0-23.9944-10.7452-23.9944-24 0-13.1223 10.5289-23.784846 23.5977-23.99678469zm0 34.5c-1.7074 0-3.3821.2046-4.9961.5984l.102.5078c1.2219 5.8531 3.2798 9.3938 4.8941 9.3938 1.8598 0 3.8313-3.9558 4.9868-9.9027-1.6174-.3958-3.2879-.5973-4.9868-.5973zm20.9424-8.9997-11.9599.0002c-.1654 7.9951-1.6506 14.9332-4.0534 18.9173 8.6493-2.0813 15.2131-9.5181 15.9891-18.607zm-28.8125 10.5259-.1499.0597c-2.1363.8832-4.1178 2.1185-5.867 3.6635 2.5134 2.2195 5.5612 3.8455 8.9255 4.6608-1.2253-2.0622-2.2058-4.9294-2.9086-8.384zm203.6787-9.8781c.905 0 1.753.2377 2.542.7132s1.427 1.2085 1.914 2.1991c.487.9905.73 2.2528.73 3.7868 0 1.4773-.233 2.7141-.7 3.7103-.467.9963-1.095 1.7434-1.885 2.2416-.789.4981-1.665.7471-2.627.7471-.656 0-1.225-.1075-1.706-.3226s-.884-.4981-1.21-.8491c-.284-.307-.512-.6336-.682-.9797l-.069-.1495h-.085v7.0047h-4.151v-17.9321h4.109v2.233h.127l.077-.1689c.163-.3362.38-.6619.649-.9773.314-.3679.716-.6693 1.205-.9042.49-.2349 1.077-.3524 1.762-.3524zm39.351.1698 2.402 9.3057h.136l2.436-9.3057 4.372.0085-4.915 14.2811-.083.2311c-.23.6086-.538 1.1556-.923 1.6411-.433.5462-.99.975-1.672 1.2863-.682.3114-1.521.467-2.517.467-.498 0-.968-.0382-1.409-.1146-.378-.0655-.711-.1487-.998-.2495l-.14-.0519.917-3.0142.165.0509c.54.1588 1.001.2112 1.384.1571.392-.0551.699-.2848.922-.689l.05-.0963.162-.3906-4.635-13.517zm-140.014-.1698c1.369 0 2.545.2816 3.527.8448s1.737 1.35 2.266 2.3604.794 2.1863.794 3.5278c0 1.3359-.265 2.509-.794 3.5194-.529 1.0103-1.284 1.7971-2.266 2.3603-.982.5633-2.158.8449-3.527.8449-1.37 0-2.545-.2816-3.527-.8449-.982-.5632-1.738-1.35-2.267-2.3603-.529-1.0104-.793-2.1835-.793-3.5194 0-1.3415.264-2.5174.793-3.5278s1.285-1.7972 2.267-2.3604 2.157-.8448 3.527-.8448zm24.029 0c.928 0 1.777.1444 2.547.433.769.2887 1.434.7161 1.995 1.2821.56.566.996 1.2637 1.307 2.0929.287.7655.442 1.6334.464 2.6039l.003.2447v1.0359l-8.693.0002v.1101l.004.1749c.021.4599.124.8671.311 1.2218.209.3991.506.709.891.9298.385.2207.843.3311 1.375.3311.368 0 .702-.051 1.002-.1528.3-.1019.557-.2519.772-.45.184-.1699.329-.3729.435-.6093l.049-.1209 3.811.1103-.036.1815c-.173.7788-.507 1.4613-1.004 2.0473-.534.6312-1.235 1.1208-2.1 1.4689-.866.3481-1.868.5222-3.005.5222-1.364 0-2.54-.2703-3.527-.8109-.988-.5406-1.746-1.3132-2.275-2.3179-.53-1.0047-.794-2.2005-.794-3.5873 0-1.3471.266-2.5259.798-3.5363s1.282-1.7972 2.249-2.3604c.968-.5632 2.108-.8448 3.421-.8448zm37.849 0c1.37 0 2.545.2816 3.527.8448s1.738 1.35 2.267 2.3604.793 2.1863.793 3.5278c0 1.3359-.264 2.509-.793 3.5194-.529 1.0103-1.285 1.7971-2.267 2.3603-.982.5633-2.157.8449-3.527.8449-1.369 0-2.545-.2816-3.527-.8449-.982-.5632-1.737-1.35-2.266-2.3603-.529-1.0104-.794-2.1835-.794-3.5194 0-1.3415.265-2.5174.794-3.5278s1.284-1.7972 2.266-2.3604 2.158-.8448 3.527-.8448zm-98.5456 0c.9281 0 1.777.1444 2.5466.433.7696.2887 1.4346.7161 1.9948 1.2821.5603.566.996 1.2637 1.3073 2.0929.2873.7655.442 1.6334.4641 2.6039l.0027.2447v1.0359l-8.6926.0002.0003.1101.0039.1749c.0207.4599.1241.8671.3102 1.2218.2094.3991.5065.709.8913.9298.3848.2207.8432.3311 1.3751.3311.3679 0 .7018-.051 1.0017-.1528.2999-.1019.5574-.2519.7725-.45.1843-.1699.3291-.3729.4344-.6093l.0494-.1209 3.8114.1103-.0368.1815c-.1721.7788-.5065 1.4613-1.0031 2.0473-.5347.6312-1.2351 1.1208-2.1009 1.4689s-1.8675.5222-3.005.5222c-1.3638 0-2.5395-.2703-3.527-.8109s-1.7458-1.3132-2.2749-2.3179-.7937-2.2005-.7937-3.5873c0-1.3471.266-2.5259.7979-3.5363.532-1.0104 1.2818-1.7972 2.2495-2.3604s2.108-.8448 3.4209-.8448zm82.3426-4.4151c1.053 0 2.026.1458 2.92.4373s1.681.716 2.36 1.2736c.679.5575 1.231 1.241 1.655 2.0504.392.7472.647 1.5933.763 2.5382l.027.2383h-4.244l-.028-.1842c-.063-.3632-.17-.6952-.32-.996-.176-.351-.408-.651-.697-.9-.288-.2491-.629-.4401-1.022-.5731-.394-.1331-.828-.1996-1.303-.1996-.844 0-1.569.2066-2.178.6198-.608.4132-1.075 1.0104-1.4 1.7915-.326.7812-.488 1.7265-.488 2.8359 0 1.1547.165 2.1212.496 2.8995s.798 1.3642 1.401 1.7576c.602.3934 1.317.5901 2.143.5901.464 0 .887-.0595 1.269-.1783.382-.1189.719-.293 1.01-.5222.292-.2293.532-.5094.722-.8406.162-.2838.282-.5999.359-.9481l.036-.1769 4.244.0255-.024.2097c-.091.6979-.306 1.3865-.643 2.0658-.37.7471-.878 1.4278-1.523 2.0419-.645.6142-1.431 1.1024-2.356 1.4647-.925.3622-1.985.5434-3.179.5434-1.573 0-2.981-.3467-4.223-1.0401s-2.222-1.7052-2.941-3.0354-1.078-2.9491-1.078-4.8566c0-1.9132.365-3.5349 1.095-4.8651s1.717-2.3406 2.962-3.0311c1.245-.6906 2.64-1.0359 4.185-1.0359zm68.055 4.4151c.832 0 1.599.0977 2.3.2929.702.1953 1.313.4783 1.834.8491.521.3707.924.825 1.21 1.3627.259.4889.401 1.0409.425 1.656l.003.1865v8.8641h-3.905v-1.8169h-.101l-.09.1623c-.217.3715-.483.691-.797.9584-.36.3057-.781.5349-1.265.6877-.484.1529-1.029.2293-1.634.2293-.832 0-1.569-.1401-2.212-.4203-.642-.2802-1.148-.7047-1.519-1.2736-.371-.5688-.556-1.2835-.556-2.1438 0-.7246.127-1.3359.382-1.834s.605-.9028 1.053-1.2142c.447-.3113.962-.5476 1.544-.7089.583-.1613 1.206-.2703 1.868-.3269.741-.0679 1.338-.1401 1.791-.2165s.782-.1868.989-.3312c.184-.1283.286-.3046.306-.5291l.004-.0864v-.0425l-.003-.1069c-.023-.3844-.172-.6855-.447-.9034-.3-.2378-.705-.3567-1.214-.3567-.549 0-.99.1189-1.324.3567-.304.2161-.507.507-.609.8729l-.028.112-3.828-.1359.029-.1814c.13-.7196.413-1.3681.849-1.9455.473-.6254 1.124-1.1179 1.953-1.4773.829-.3595 1.826-.5392 2.992-.5392zm-100.004-2.9547-.001 3.1249 2.352-.0004v3.0566l-2.352.0005.001 5.8835.002.1061c.01.2062.051.376.121.5095.082.1556.202.266.361.3311.158.0651.348.0976.568.0976.159 0 .327-.0155.505-.0467.143-.0249.258-.0471.344-.0665l.06-.0141.628 2.9971-.078.0219c-.191.0527-.444.1161-.758.1904-.315.0743-.682.1248-1.103.1514l-.183.0099-.222.0076c-.879.0191-1.638-.098-2.278-.3514-.644-.255-1.146-.6429-1.507-1.1638l-.081-.1226-.094-.1627c-.278-.5121-.423-1.1299-.436-1.8533v-.183l-.001-6.342-1.722-.0005v-3.0566l1.722.0004.001-3.1249zm116.36 2.9547c.917 0 1.713.2052 2.389.6156.677.4104 1.203.9821 1.579 1.7151.35.6806.534 1.4674.555 2.3604l.001.208v8.3122h-4.151v-7.4971l-.001-.1428c-.018-.6565-.2-1.175-.546-1.5553-.371-.4076-.884-.6114-1.541-.6114-.436 0-.819.0948-1.15.2845-.331.1896-.586.4599-.764.8108-.159.312-.249.6821-.271 1.1103l-.005.1633v7.4377h-4.151v-13.0415h3.947v2.3944h.145l.06-.1574c.295-.7236.767-1.298 1.417-1.7233.696-.4557 1.525-.6835 2.487-.6835zm-44.092 0c1.234 0 2.236.3948 3.005 1.1844.735.7538 1.119 1.7744 1.152 3.0619l.003.1858v8.7792h-4.151v-7.8283l-.003-.1371c-.022-.584-.188-1.035-.498-1.353-.334-.3424-.767-.5136-1.299-.5136-.571 0-1.02.1853-1.345.5561-.301.3422-.462.7918-.485 1.3486l-.003.1415v7.7858h-3.99v-7.8707l-.003-.1375c-.023-.541-.186-.9735-.489-1.2974-.329-.351-.761-.5264-1.299-.5264-.362 0-.682.0863-.959.2589-.278.1727-.494.4175-.65.7345-.136.2773-.212.598-.229.962l-.004.1587v7.7179h-4.151v-13.0415h3.947v2.3944h.145l.056-.1563c.277-.7188.717-1.2922 1.319-1.7202.645-.4584 1.414-.6877 2.309-.6877.905 0 1.68.2321 2.325.6962.605.4352 1.004 1.0096 1.196 1.7234l.035.1446h.136l.048-.1436c.256-.709.715-1.2823 1.378-1.7201.708-.467 1.542-.7005 2.504-.7005zm-137.0243-4.1773.242.0027c1.1995.0274 2.2436.2599 3.1322.6977.9479.467 1.6794 1.1349 2.1943 2.0038.515.8689.7725 1.8976.7725 3.0863 0 1.1348-.2331 2.1078-.6993 2.9191l-.0901.1503-.1254.1904c-.4402.6361-1.0167 1.1482-1.7294 1.5363l-.1668.0873-.2006.0963 3.6058 6.6184h-4.5838l-3.1791-5.9512h-2.1521l.0003 5.9512h-4.2018v-17.3886zm38.2033 4.1773c1.234 0 2.236.3948 3.005 1.1844.735.7538 1.119 1.7744 1.153 3.0619l.002.1858v8.7792h-4.151v-7.8283l-.003-.1371c-.022-.584-.188-1.035-.498-1.353-.334-.3424-.767-.5136-1.299-.5136-.571 0-1.02.1853-1.345.5561-.3.3422-.462.7918-.485 1.3486l-.003.1415v7.7858h-3.9898v-7.8707l-.0029-.1375c-.0233-.541-.1864-.9735-.4894-1.2974-.3282-.351-.7612-.5264-1.2988-.5264-.3622 0-.6819.0863-.9592.2589-.2773.1727-.4937.4175-.6494.7345-.1361.2773-.2127.598-.2298.962l-.0036.1587v7.7179h-4.1509v-13.0415h3.9472v2.3944h.1443l.0568-.1563c.2768-.7188.7162-1.2922 1.3183-1.7202.6452-.4584 1.4148-.6877 2.3089-.6877.9055 0 1.6803.2321 2.3263.6962.604.4352 1.003 1.0096 1.195 1.7234l.035.1446h.136l.049-.1436c.255-.709.714-1.2823 1.377-1.7201.708-.467 1.542-.7005 2.504-.7005zm-103.26094-.6478c.32492 4.6041 2.13367 8.7984 4.95082 12.1074 4.35632-3.9003 10.00112-6.1077 15.99152-6.1077 1.8603 0 3.6928.212 5.4715.6271.2753-2.0614.4552-4.2911.5097-6.6264zm231.47294 7.9837-.093.0456c-.099.0446-.21.086-.335.1242-.167.0509-.35.099-.548.1443s-.402.0849-.611.1189c-.209.0339-.41.0651-.603.0934-.39.0622-.723.1585-.997.2887-.275.1301-.484.2985-.628.5051-.145.2066-.217.4515-.217.7345 0 .4302.154.7585.463.9849.308.2264.7.3396 1.175.3396.448 0 .851-.0906 1.21-.2717s.647-.4316.862-.7514c.191-.2843.297-.6099.318-.9769l.004-.1396zm-115.36-4.2623c-.515 0-.949.1528-1.303.4585-.353.3056-.622.7302-.806 1.2736s-.276 1.1773-.276 1.9019c0 .7132.092 1.3415.276 1.8849s.453.9679.806 1.2736c.354.3056.788.4584 1.303.4584.498 0 .92-.1528 1.265-.4584.345-.3057.61-.7302.794-1.2736s.276-1.1717.276-1.8849c0-.7246-.092-1.3585-.276-1.9019s-.449-.968-.794-1.2736c-.345-.3057-.767-.4585-1.265-.4585zm61.879 0c-.515 0-.95.1528-1.303.4585-.354.3056-.623.7302-.807 1.2736s-.276 1.1773-.276 1.9019c0 .7132.092 1.3415.276 1.8849s.453.9679.807 1.2736c.353.3056.788.4584 1.303.4584.498 0 .919-.1528 1.265-.4584.345-.3057.609-.7302.793-1.2736s.276-1.1717.276-1.8849c0-.7246-.092-1.3585-.276-1.9019s-.448-.968-.793-1.2736c-.346-.3057-.767-.4585-1.265-.4585zm37.299.1698c-.51 0-.943.1387-1.299.416-.357.2774-.63.6736-.819 1.1887-.19.5151-.285 1.1293-.285 1.8425 0 .7019.095 1.3132.285 1.8339.189.5208.464.9241.823 1.2099.359.2859.791.4288 1.295.4288.509 0 .942-.1429 1.298-.4288.357-.2858.627-.6891.811-1.2099.184-.5207.276-1.132.276-1.8339s-.092-1.3104-.276-1.8255-.453-.9141-.806-1.1972c-.354-.283-.788-.4245-1.303-.4245zm-75.089-.2462c-.464 0-.88.1033-1.248.3099s-.659.4868-.874.8406c-.161.2653-.265.5569-.312.8747l-.016.1379-.008.1213 4.826-.0005-.005-.1453c-.025-.383-.128-.7279-.309-1.0348-.203-.3453-.482-.6156-.836-.8109-.353-.1953-.759-.2929-1.218-.2929zm-60.6967 0c-.464 0-.88.1033-1.2478.3099-.3679.2066-.6593.4868-.8743.8406-.1613.2653-.2653.5569-.312.8747l-.0165.1379-.0077.1213 4.8266-.0005-.0055-.1453c-.0246-.383-.1275-.7279-.3086-1.0348-.2037-.3453-.4824-.6156-.8361-.8109s-.7597-.2929-1.2181-.2929zm-15.3559-3.7868h-2.0712l-.0003 4.7383 2.0715-.0006.1871-.0025c.5518-.015 1.02-.0977 1.4045-.2479.4273-.167.7513-.4217.972-.7642.2207-.3424.331-.7825.331-1.3203 0-.5377-.1103-.9835-.331-1.3372-.2207-.3538-.5461-.6199-.9762-.7982s-.9592-.2674-1.5874-.2674zm-48.136-21.77626-.1163.02808c-8.69 2.14412-15.24892 9.70098-15.89709 18.89018l11.95999-.0003c.1653-7.9954 1.6505-14.93374 4.0534-18.91796zm20.9212 6.81086-.27.2375c-4.3255 3.7567-9.8604 5.8694-15.7222 5.8694-1.8598 0-3.6923-.2119-5.4715-.6271-.2752 2.0611-.4551 4.2913-.5096 6.6271l26.9236.0005c-.3152-4.4687-2.0282-8.5513-4.7043-11.8132zm38.9545-.0544c.4641 0 .8885.0721 1.2733.2165.3849.1443.7173.358.9974.641.2802.283.498.6319.6537 1.0465.1383.3685.2152.7846.2305 1.2482l.0029.1761v.5179l-4.3462.0001v.0551l.0033.112c.0128.2199.064.4153.1538.5863.1047.1996.2532.3545.4456.4649s.4216.1656.6876.1656c.1839 0 .3509-.0255.5008-.0764.15-.051.2787-.126.3863-.225.086-.0793.1548-.173.2064-.2813l.0355-.0838 1.9057.0551-.0299.1404c-.089.3689-.2524.6935-.49.974-.2674.3156-.6176.5604-1.0505.7345-.4329.174-.9338.2611-1.5025.2611-.6819 0-1.2697-.1352-1.7635-.4055-.4937-.2703-.8729-.6566-1.1375-1.1589-.2645-.5024-.3968-1.1003-.3968-1.7937 0-.6736.133-1.2629.399-1.7681.2659-.5052.6408-.8986 1.1247-1.1802.4838-.2816 1.054-.4224 1.7104-.4224zm-8.5683-2.0887v3.3708h.0721l.047-.118c.1493-.3459.3749-.6207.6767-.8245.3353-.2264.7463-.3396 1.2329-.3396.4584 0 .8574.1012 1.1969.3035.3396.2024.6034.4875.7916.8554.1673.3271.259.7033.2754 1.1288l.0027.1618v4.1561h-2.0756v-3.7485l-.0025-.1179c-.0159-.3063-.1056-.5501-.2691-.7312-.1839-.2038-.4428-.3057-.7767-.3057-.2179 0-.4096.0474-.5751.1423-.1655.0948-.2943.2299-.3862.4054-.0789.1504-.125.3278-.1383.5323l-.0039.1045v3.7188h-2.0755v-8.6943zm-3.0398 0v1.7066h-2.6357v6.9877h-2.0712v-6.9877h-2.64v-1.7066zm-43.3386-5.25c-1.8598 0-3.8314 3.95613-4.9868 9.9035 1.6179.3951 3.2884.5965 4.9868.5965 1.7074 0 3.3823-.2045 4.9969-.5984l-.1132-.5578c-1.2233-5.82508-3.2751-9.3438-4.8837-9.3438zm54.9892 8.8373c-.232 0-.44.0516-.6239.1549s-.3297.2434-.4372.4203c-.0688.1132-.1168.236-.1438.3683l-.0164.1011-.0074.098 2.4128-.0007-.0055-.1083c-.0161-.1773-.0666-.3379-.1515-.4817-.1018-.1727-.2412-.3078-.418-.4055-.1769-.0976-.3799-.1464-.6091-.1464zm-50.0284-8.24767.1084.18639c1.1756 2.04688 2.119 4.84614 2.8012 8.19868 2.1921-.8858 4.2253-2.1423 6.0173-3.72489-2.5136-2.2186-5.5619-3.84483-8.9269-4.66018z" fill="#161e2e"/></g></svg>